<?xml version="1.0" encoding="utf-8"?>
<!DOCTYPE svg PUBLIC "-//W3C//DTD SVG 1.1//EN" "http://www.w3.org/Graphics/SVG/1.1/DTD/svg11.dtd">
<svg version="1.1" xmlns="http://www.w3.org/2000/svg" xmlns:xlink="http://www.w3.org/1999/xlink" x="0px" y="0px" viewBox="0 0 256 256" enable-background="new 0 0 256 256" xml:space="preserve">
<metadata> Svg Vector Icons : http://www.onlinewebfonts.com/icon </metadata>
<g><g><path fill="#000000" d="M157,48c0.8,1.6,1.8,3,3,4.1c1.2,1.2,2.6,1.8,4.4,1.8l0,0H199v-3.8c0-0.9-0.2-2-0.5-3.3c-0.3-1.3-1.1-2.8-2.5-4.6c-1.3-1.8-3.3-4-5.8-6.6c-2.5-2.6-5.9-5.8-10.1-9.6c-3.9-3.5-7.2-6.2-9.8-8.4c-2.6-2.1-4.8-3.8-6.6-5c-1.8-1.2-3.3-1.9-4.6-2.2c-1.3-0.3-2.6-0.5-4-0.5h-0.5v29c0,1.1,0.2,2.5,0.6,4.1C155.6,44.8,156.2,46.5,157,48z"/><path fill="#000000" d="M154.4,186.9L154.4,186.9H65.9c-4.1,0-7.5-1.4-10.4-4.2c-2.8-2.8-4.3-6.3-4.2-10.4c0-4.1,1.4-7.6,4.2-10.5c2.8-2.9,6.3-4.4,10.4-4.4h88.4c4.1,0,7.6,1.4,10.5,4.4c2.9,2.9,4.4,6.4,4.4,10.5c0,3-0.9,5.7-2.6,8.3l32.3-33.5V69h-34.4c-4.4,0-8.2-1-11.3-3c-3.2-2-5.7-4.4-7.7-7.3s-3.4-6.1-4.4-9.6c-0.9-3.5-1.4-6.7-1.4-9.7V10H49.4c-3.6,0-7.1,1-10.4,3c-3.3,2-6.2,4.4-8.8,7.3c-2.6,2.9-4.6,6.2-6.1,9.8c-1.5,3.6-2.2,7.1-2.2,10.4v160.6c0,3.9,1,7.8,3.1,11.4c2,3.7,4.6,7,7.7,9.8c3.1,2.8,6.4,5.1,9.9,6.8c3.5,1.7,6.8,2.6,9.8,2.6h65.1l45.8-47.7C160.7,186,157.8,186.9,154.4,186.9z M55.5,102.8c2.8-2.9,6.3-4.4,10.4-4.4h88.4c4.1,0,7.6,1.4,10.5,4.4c2.9,2.9,4.4,6.4,4.4,10.5s-1.4,7.5-4.4,10.4s-6.4,4.2-10.5,4.2H65.9c-4.1,0-7.5-1.4-10.4-4.2c-2.8-2.8-4.3-6.3-4.2-10.4C51.3,109.3,52.7,105.8,55.5,102.8z"/><path fill="#000000" d="M233.2,165L233.2,165c-0.9-2.2-2.3-4.3-4.1-6.3c-1.8-2-3.5-3.3-5.1-4.1c-1.4-0.8-3.2-1.3-5.4-1.5c-2.2-0.2-4.2,0.5-6.1,2.2c-0.8,0.6-1.8,1.5-3,2.6c-1.2,1.1-2.2,2-3.2,2.8l20,19.8c0.5-0.3,1-0.8,1.7-1.4c0.5-0.5,1-1.1,1.7-1.8c0.6-0.7,1.3-1.5,2.1-2.2c1.7-1.7,2.5-3.5,2.4-5.4C234,167.8,233.7,166.2,233.2,165z"/><path fill="#000000" d="M175.7,191.2c-2.8,2.8-5.7,5.7-8.5,8.6c-2.8,2.9-5.4,5.5-7.8,7.9l-9,9l0,0c-1.6,1.6-2.8,3.4-3.8,5.4c-0.3,0.6-0.7,1.8-1.3,3.5c-0.6,1.7-1.1,3.6-1.8,5.5c-0.6,2-1.2,3.9-1.7,5.8c-0.5,1.9-0.8,3.3-0.9,4.2c-0.3,1.9-0.1,3.2,0.5,4c0.6,0.8,1.9,1,3.8,0.7c0.9-0.2,2.4-0.5,4.2-0.9c1.9-0.5,3.9-1,5.9-1.7c2-0.6,4-1.3,6-2c2-0.7,3.4-1.3,4.4-1.8c0.9-0.5,1.9-1.1,2.8-1.8c0.9-0.7,1.8-1.4,2.6-2c0.2-0.2,1-1,2.5-2.6c1.5-1.6,3.3-3.5,5.5-5.7l39.2-39.2l-19.8-19.8C190.1,176.9,182.4,184.4,175.7,191.2z"/></g></g>
</svg>